<svg xmlns="http://www.w3.org/2000/svg" xmlns:xlink="http://www.w3.org/1999/xlink" contentStyleType="text/css" height="521px" preserveAspectRatio="none" style="width:781px;height:521px;background:#FFFFFF;" version="1.1" viewBox="0 0 781 521" width="781px" zoomAndPan="magnify"><defs/><g><!--cluster Calculator Logic Module--><g id="cluster_Calculator Logic Module"><path d="M117.5,382.49 L307.9854,382.49 A3.75,3.75 0 0 1 310.4854,384.99 L317.4854,404.7869 L519.5,404.7869 A2.5,2.5 0 0 1 522,407.2869 L522,511.58 A2.5,2.5 0 0 1 519.5,514.08 L117.5,514.08 A2.5,2.5 0 0 1 115,511.58 L115,384.99 A2.5,2.5 0 0 1 117.5,382.49 " fill="#ADD8E6" style="stroke:#000000;stroke-width:1.5;"/><line style="stroke:#000000;stroke-width:1.5;" x1="115" x2="317.4854" y1="404.7869" y2="404.7869"/><text fill="#000000" font-family="sans-serif" font-size="14" font-weight="bold" lengthAdjust="spacing" textLength="189.4854" x="119" y="397.4851">Calculator Logic Module</text></g><!--cluster Calculator Logic Unit Tests via JUnit, NUnit, or Pytest--><g id="cluster_Calculator Logic Unit Tests via JUnit, NUnit, or Pytest"><path d="M8.5,217.89 L429.3359,217.89 A3.75,3.75 0 0 1 431.8359,220.39 L438.8359,240.1869 L517.5,240.1869 A2.5,2.5 0 0 1 520,242.6869 L520,346.99 A2.5,2.5 0 0 1 517.5,349.49 L8.5,349.49 A2.5,2.5 0 0 1 6,346.99 L6,220.39 A2.5,2.5 0 0 1 8.5,217.89 " fill="#FFFFE0" style="stroke:#000000;stroke-width:1.5;"/><line style="stroke:#000000;stroke-width:1.5;" x1="6" x2="438.8359" y1="240.1869" y2="240.1869"/><text fill="#000000" font-family="sans-serif" font-size="14" font-weight="bold" lengthAdjust="spacing" textLength="419.8359" x="10" y="232.8851">Calculator Logic Unit Tests via JUnit, NUnit, or Pytest</text></g><!--cluster Calculator Web Server App--><g id="cluster_Calculator Web Server App"><path d="M548.5,234.19 L762.2139,234.19 A3.75,3.75 0 0 1 764.7139,236.69 L771.7139,256.4869 L771.5,256.4869 A2.5,2.5 0 0 1 774,258.9869 L774,495.28 A2.5,2.5 0 0 1 771.5,497.78 L548.5,497.78 A2.5,2.5 0 0 1 546,495.28 L546,236.69 A2.5,2.5 0 0 1 548.5,234.19 " fill="#ADD8E6" style="stroke:#000000;stroke-width:1.5;"/><line style="stroke:#000000;stroke-width:1.5;" x1="546" x2="771.7139" y1="256.4869" y2="256.4869"/><text fill="#000000" font-family="sans-serif" font-size="14" font-weight="bold" lengthAdjust="spacing" textLength="212.7139" x="550" y="249.1851">Calculator Web Server App</text></g><!--cluster Calculator End-To-End Tests via Playwright--><g id="cluster_Calculator End-To-End Tests via Playwright"><path d="M218.5,6 L559.8613,6 A3.75,3.75 0 0 1 562.3613,8.5 L569.3613,28.2969 L609.5,28.2969 A2.5,2.5 0 0 1 612,30.7969 L612,151.39 A2.5,2.5 0 0 1 609.5,153.89 L218.5,153.89 A2.5,2.5 0 0 1 216,151.39 L216,8.5 A2.5,2.5 0 0 1 218.5,6 " fill="#FFFFE0" style="stroke:#000000;stroke-width:1.5;"/><line style="stroke:#000000;stroke-width:1.5;" x1="216" x2="569.3613" y1="28.2969" y2="28.2969"/><text fill="#000000" font-family="sans-serif" font-size="14" font-weight="bold" lengthAdjust="spacing" textLength="340.3613" x="220" y="20.9951">Calculator End-To-End Tests via Playwright</text></g><g id="cluster_##20"><path d="M645.611,61.834 C648.6436,54.9211 653.453,55.0117 658.033,60.2525 C661.8677,53.5965 668.0114,53.8167 671.8152,60.285 C675.7011,54.1153 681.4778,54.6208 685.0307,60.6458 C688.9958,54.0017 693.8643,55.8352 697.4482,61.0451 C701.634,54.5105 707.1814,53.8801 711.8177,60.555 C715.9987,53.6615 721.3804,53.9736 725.7143,60.3955 C732.7721,64.8905 734.436,70.0592 727.4541,76.1087 C734.2702,78.1119 737.2908,83.9306 732.0603,89.9443 C737.5473,95.5661 736.5766,102.3933 729.068,105.5181 C735.0194,111.1153 734.795,117.8758 726.1053,120.5962 C723.7042,127.1786 717.1499,128.0052 712.7411,122.8899 C708.8051,130.0561 702.4263,130.1499 697.9837,123.4283 C696.8034,131.7282 690.2921,133.7387 684.6799,127.4775 C678.6065,133.3207 674.3643,131.8355 670.7405,124.8217 C665.9508,129.6345 660.2534,127.493 658.2733,121.5616 C653.1382,127.9628 648.6274,127.6181 644.9138,120.1885 C637.2189,117.1041 635.9016,110.4677 641.6175,104.5556 C632.9318,103.5374 630.4219,97.521 634.8969,90.2989 C630.8547,84.0232 631.6469,78.8402 639.5593,76.6474 C634.0833,69.4622 636.2267,62.9484 645.611,61.834 " fill="#FFFF00" style="stroke:#181818;stroke-width:1;"/></g><!--class DescriptiveStatistics--><g id="elem_DescriptiveStatistics"><rect codeLine="5" fill="#F1F1F1" height="80.5938" id="DescriptiveStatistics" rx="2.5" ry="2.5" style="stroke:#181818;stroke-width:0.5;" width="175.1924" x="131.4" y="417.49"/><ellipse cx="146.4" cy="433.49" fill="#ADD1B2" rx="11" ry="11" style="stroke:#181818;stroke-width:1;"/><path d="M149.3688,439.1306 Q148.7906,439.4275 148.15,439.5681 Q147.5094,439.7244 146.8063,439.7244 Q144.3063,439.7244 142.9781,438.0838 Q141.6656,436.4275 141.6656,433.3025 Q141.6656,430.1775 142.9781,428.5213 Q144.3063,426.865 146.8063,426.865 Q147.5094,426.865 148.15,427.0213 Q148.8063,427.1775 149.3688,427.4744 L149.3688,430.1931 Q148.7438,429.615 148.15,429.3494 Q147.5563,429.0681 146.9313,429.0681 Q145.5875,429.0681 144.9,430.1463 Q144.2125,431.2088 144.2125,433.3025 Q144.2125,435.3963 144.9,436.4744 Q145.5875,437.5369 146.9313,437.5369 Q147.5563,437.5369 148.15,437.2713 Q148.7438,436.99 149.3688,436.4119 L149.3688,439.1306 Z " fill="#000000"/><text fill="#000000" font-family="sans-serif" font-size="14" lengthAdjust="spacing" textLength="143.1924" x="160.4" y="438.3367">DescriptiveStatistics</text><line style="stroke:#181818;stroke-width:0.5;" x1="132.4" x2="305.5924" y1="449.49" y2="449.49"/><ellipse cx="142.4" cy="463.1384" fill="none" rx="3" ry="3" style="stroke:#038048;stroke-width:1;"/><text fill="#000000" font-family="sans-serif" font-size="14" lengthAdjust="spacing" textLength="137.8262" x="151.4" y="466.4851">ValidationFunctions</text><ellipse cx="142.4" cy="479.4353" fill="none" rx="3" ry="3" style="stroke:#038048;stroke-width:1;"/><text fill="#000000" font-family="sans-serif" font-size="14" lengthAdjust="spacing" textLength="104.4463" x="151.4" y="482.782">LogicFunctions</text><line style="stroke:#181818;stroke-width:0.5;" x1="132.4" x2="305.5924" y1="490.0838" y2="490.0838"/></g><!--class LinearRegression--><g id="elem_LinearRegression"><rect codeLine="10" fill="#F1F1F1" height="80.5938" id="LinearRegression" rx="2.5" ry="2.5" style="stroke:#181818;stroke-width:0.5;" width="163.8262" x="342.09" y="417.49"/><ellipse cx="361.9512" cy="433.49" fill="#ADD1B2" rx="11" ry="11" style="stroke:#181818;stroke-width:1;"/><path d="M364.92,439.1306 Q364.3419,439.4275 363.7012,439.5681 Q363.0606,439.7244 362.3575,439.7244 Q359.8575,439.7244 358.5294,438.0838 Q357.2169,436.4275 357.2169,433.3025 Q357.2169,430.1775 358.5294,428.5213 Q359.8575,426.865 362.3575,426.865 Q363.0606,426.865 363.7012,427.0213 Q364.3575,427.1775 364.92,427.4744 L364.92,430.1931 Q364.295,429.615 363.7012,429.3494 Q363.1075,429.0681 362.4825,429.0681 Q361.1387,429.0681 360.4512,430.1463 Q359.7637,431.2088 359.7637,433.3025 Q359.7637,435.3963 360.4512,436.4744 Q361.1387,437.5369 362.4825,437.5369 Q363.1075,437.5369 363.7012,437.2713 Q364.295,436.99 364.92,436.4119 L364.92,439.1306 Z " fill="#000000"/><text fill="#000000" font-family="sans-serif" font-size="14" lengthAdjust="spacing" textLength="121.0234" x="377.0315" y="438.3367">LinearRegression</text><line style="stroke:#181818;stroke-width:0.5;" x1="343.09" x2="504.9162" y1="449.49" y2="449.49"/><ellipse cx="353.09" cy="463.1384" fill="none" rx="3" ry="3" style="stroke:#038048;stroke-width:1;"/><text fill="#000000" font-family="sans-serif" font-size="14" lengthAdjust="spacing" textLength="137.8262" x="362.09" y="466.4851">ValidationFunctions</text><ellipse cx="353.09" cy="479.4353" fill="none" rx="3" ry="3" style="stroke:#038048;stroke-width:1;"/><text fill="#000000" font-family="sans-serif" font-size="14" lengthAdjust="spacing" textLength="104.4463" x="362.09" y="482.782">LogicFunctions</text><line style="stroke:#181818;stroke-width:0.5;" x1="343.09" x2="504.9162" y1="490.0838" y2="490.0838"/></g><!--class LogicUnitTests--><g id="elem_LogicUnitTests"><rect codeLine="19" fill="#F1F1F1" height="80.5938" id="LogicUnitTests" rx="2.5" ry="2.5" style="stroke:#181818;stroke-width:0.5;" width="481.7246" x="22.14" y="252.89"/><ellipse cx="207.4623" cy="268.89" fill="#ADD1B2" rx="11" ry="11" style="stroke:#181818;stroke-width:1;"/><path d="M210.431,274.5306 Q209.8529,274.8275 209.2123,274.9681 Q208.5716,275.1244 207.8685,275.1244 Q205.3685,275.1244 204.0404,273.4838 Q202.7279,271.8275 202.7279,268.7025 Q202.7279,265.5775 204.0404,263.9213 Q205.3685,262.265 207.8685,262.265 Q208.5716,262.265 209.2123,262.4213 Q209.8685,262.5775 210.431,262.8744 L210.431,265.5931 Q209.806,265.015 209.2123,264.7494 Q208.6185,264.4681 207.9935,264.4681 Q206.6498,264.4681 205.9623,265.5463 Q205.2748,266.6088 205.2748,268.7025 Q205.2748,270.7963 205.9623,271.8744 Q206.6498,272.9369 207.9935,272.9369 Q208.6185,272.9369 209.2123,272.6713 Q209.806,272.39 210.431,271.8119 L210.431,274.5306 Z " fill="#000000"/><text fill="#000000" font-family="sans-serif" font-size="14" lengthAdjust="spacing" textLength="102.5801" x="227.9623" y="273.7367">LogicUnitTests</text><line style="stroke:#181818;stroke-width:0.5;" x1="23.14" x2="502.8646" y1="284.89" y2="284.89"/><line style="stroke:#181818;stroke-width:0.5;" x1="23.14" x2="502.8646" y1="292.89" y2="292.89"/><ellipse cx="33.14" cy="306.5384" fill="#84BE84" rx="3" ry="3" style="stroke:#038048;stroke-width:1;"/><text fill="#000000" font-family="sans-serif" font-size="14" lengthAdjust="spacing" textLength="455.7246" x="42.14" y="309.8851">DescriptiveStatistics_AcceptsValueMeanStdDev_ReturnsZScore()</text><ellipse cx="33.14" cy="322.8353" fill="#84BE84" rx="3" ry="3" style="stroke:#038048;stroke-width:1;"/><text fill="#000000" font-family="sans-serif" font-size="14" lengthAdjust="spacing" textLength="304.8691" x="42.14" y="326.182">LinearRegression_EmptyList_ReturnsError()</text></g><!--class Models--><g id="elem_Models"><rect codeLine="31" fill="#F1F1F1" height="48" id="Models" rx="2.5" ry="2.5" style="stroke:#181818;stroke-width:0.5;" width="81.3281" x="562.34" y="433.78"/><ellipse cx="577.34" cy="449.78" fill="#ADD1B2" rx="11" ry="11" style="stroke:#181818;stroke-width:1;"/><path d="M580.3088,455.4206 Q579.7306,455.7175 579.09,455.8581 Q578.4494,456.0144 577.7463,456.0144 Q575.2463,456.0144 573.9181,454.3738 Q572.6056,452.7175 572.6056,449.5925 Q572.6056,446.4675 573.9181,444.8113 Q575.2463,443.155 577.7463,443.155 Q578.4494,443.155 579.09,443.3113 Q579.7463,443.4675 580.3088,443.7644 L580.3088,446.4831 Q579.6838,445.905 579.09,445.6394 Q578.4963,445.3581 577.8713,445.3581 Q576.5275,445.3581 575.84,446.4363 Q575.1525,447.4988 575.1525,449.5925 Q575.1525,451.6863 575.84,452.7644 Q576.5275,453.8269 577.8713,453.8269 Q578.4963,453.8269 579.09,453.5613 Q579.6838,453.28 580.3088,452.7019 L580.3088,455.4206 Z " fill="#000000"/><text fill="#000000" font-family="sans-serif" font-size="14" lengthAdjust="spacing" textLength="49.3281" x="591.34" y="454.6267">Models</text><line style="stroke:#181818;stroke-width:0.5;" x1="563.34" x2="642.6681" y1="465.78" y2="465.78"/><line style="stroke:#181818;stroke-width:0.5;" x1="563.34" x2="642.6681" y1="473.78" y2="473.78"/></g><!--class Views--><g id="elem_Views"><rect codeLine="32" fill="#F1F1F1" height="48" id="Views" rx="2.5" ry="2.5" style="stroke:#181818;stroke-width:0.5;" width="72.8242" x="678.59" y="433.78"/><ellipse cx="693.59" cy="449.78" fill="#ADD1B2" rx="11" ry="11" style="stroke:#181818;stroke-width:1;"/><path d="M696.5588,455.4206 Q695.9806,455.7175 695.34,455.8581 Q694.6994,456.0144 693.9963,456.0144 Q691.4963,456.0144 690.1681,454.3738 Q688.8556,452.7175 688.8556,449.5925 Q688.8556,446.4675 690.1681,444.8113 Q691.4963,443.155 693.9963,443.155 Q694.6994,443.155 695.34,443.3113 Q695.9963,443.4675 696.5588,443.7644 L696.5588,446.4831 Q695.9338,445.905 695.34,445.6394 Q694.7463,445.3581 694.1213,445.3581 Q692.7775,445.3581 692.09,446.4363 Q691.4025,447.4988 691.4025,449.5925 Q691.4025,451.6863 692.09,452.7644 Q692.7775,453.8269 694.1213,453.8269 Q694.7463,453.8269 695.34,453.5613 Q695.9338,453.28 696.5588,452.7019 L696.5588,455.4206 Z " fill="#000000"/><text fill="#000000" font-family="sans-serif" font-size="14" lengthAdjust="spacing" textLength="40.8242" x="707.59" y="454.6267">Views</text><line style="stroke:#181818;stroke-width:0.5;" x1="679.59" x2="750.4142" y1="465.78" y2="465.78"/><line style="stroke:#181818;stroke-width:0.5;" x1="679.59" x2="750.4142" y1="473.78" y2="473.78"/></g><!--class Controllers--><g id="elem_Controllers"><rect codeLine="33" fill="#F1F1F1" height="48" id="Controllers" rx="2.5" ry="2.5" style="stroke:#181818;stroke-width:0.5;" width="108.4668" x="561.77" y="269.19"/><ellipse cx="576.77" cy="285.19" fill="#ADD1B2" rx="11" ry="11" style="stroke:#181818;stroke-width:1;"/><path d="M579.7388,290.8306 Q579.1606,291.1275 578.52,291.2681 Q577.8794,291.4244 577.1763,291.4244 Q574.6763,291.4244 573.3481,289.7838 Q572.0356,288.1275 572.0356,285.0025 Q572.0356,281.8775 573.3481,280.2213 Q574.6763,278.565 577.1763,278.565 Q577.8794,278.565 578.52,278.7213 Q579.1763,278.8775 579.7388,279.1744 L579.7388,281.8931 Q579.1138,281.315 578.52,281.0494 Q577.9263,280.7681 577.3013,280.7681 Q575.9575,280.7681 575.27,281.8463 Q574.5825,282.9088 574.5825,285.0025 Q574.5825,287.0963 575.27,288.1744 Q575.9575,289.2369 577.3013,289.2369 Q577.9263,289.2369 578.52,288.9713 Q579.1138,288.69 579.7388,288.1119 L579.7388,290.8306 Z " fill="#000000"/><text fill="#000000" font-family="sans-serif" font-size="14" lengthAdjust="spacing" textLength="76.4668" x="590.77" y="290.0367">Controllers</text><line style="stroke:#181818;stroke-width:0.5;" x1="562.77" x2="669.2368" y1="301.19" y2="301.19"/><line style="stroke:#181818;stroke-width:0.5;" x1="562.77" x2="669.2368" y1="309.19" y2="309.19"/></g><!--class CalculatorEndToEndTests--><g id="elem_CalculatorEndToEndTests"><rect codeLine="42" fill="#F1F1F1" height="96.8906" id="CalculatorEndToEndTests" rx="2.5" ry="2.5" style="stroke:#181818;stroke-width:0.5;" width="363.75" x="232.13" y="41"/><ellipse cx="320.423" cy="57" fill="#ADD1B2" rx="11" ry="11" style="stroke:#181818;stroke-width:1;"/><path d="M323.3917,62.6406 Q322.8136,62.9375 322.173,63.0781 Q321.5323,63.2344 320.8292,63.2344 Q318.3292,63.2344 317.0011,61.5938 Q315.6886,59.9375 315.6886,56.8125 Q315.6886,53.6875 317.0011,52.0313 Q318.3292,50.375 320.8292,50.375 Q321.5323,50.375 322.173,50.5313 Q322.8292,50.6875 323.3917,50.9844 L323.3917,53.7031 Q322.7667,53.125 322.173,52.8594 Q321.5792,52.5781 320.9542,52.5781 Q319.6105,52.5781 318.923,53.6563 Q318.2355,54.7188 318.2355,56.8125 Q318.2355,58.9063 318.923,59.9844 Q319.6105,61.0469 320.9542,61.0469 Q321.5792,61.0469 322.173,60.7813 Q322.7667,60.5 323.3917,59.9219 L323.3917,62.6406 Z " fill="#000000"/><text fill="#000000" font-family="sans-serif" font-size="14" lengthAdjust="spacing" textLength="178.6641" x="340.923" y="61.8467">CalculatorEndToEndTests</text><line style="stroke:#181818;stroke-width:0.5;" x1="233.13" x2="594.88" y1="73" y2="73"/><line style="stroke:#181818;stroke-width:0.5;" x1="233.13" x2="594.88" y1="81" y2="81"/><ellipse cx="243.13" cy="94.6484" fill="#84BE84" rx="3" ry="3" style="stroke:#038048;stroke-width:1;"/><text fill="#000000" font-family="sans-serif" font-size="14" lengthAdjust="spacing" textLength="306.0107" x="252.13" y="97.9951">CalculatorUI_ListofValues_CalculatesMean()</text><ellipse cx="243.13" cy="110.9453" fill="#84BE84" rx="3" ry="3" style="stroke:#038048;stroke-width:1;"/><text fill="#000000" font-family="sans-serif" font-size="14" lengthAdjust="spacing" textLength="336.3623" x="252.13" y="114.292">CalcuatlorUI_EmptyListOfValues_DisplaysError()</text><ellipse cx="243.13" cy="127.2422" fill="#84BE84" rx="3" ry="3" style="stroke:#038048;stroke-width:1;"/><text fill="#000000" font-family="sans-serif" font-size="14" lengthAdjust="spacing" textLength="337.75" x="252.13" y="130.5889">CalculatorUI_InvalidListOfValues_DisplaysError()</text></g><!--class Browser--><g id="elem_Browser"><rect codeLine="53" fill="#F1F1F1" height="42.2969" id="Browser" rx="2.5" ry="2.5" style="stroke:#181818;stroke-width:0.5;" width="63.0391" x="652.48" y="68.3"/><text fill="#000000" font-family="sans-serif" font-size="14" lengthAdjust="spacing" textLength="57.0391" x="655.48" y="86.2951">Browser</text><line style="stroke:#181818;stroke-width:0.5;" x1="653.48" x2="714.5191" y1="94.5969" y2="94.5969"/><line style="stroke:#181818;stroke-width:0.5;" x1="653.48" x2="714.5191" y1="102.5969" y2="102.5969"/></g><!--link LogicUnitTests to DescriptiveStatistics--><g id="link_LogicUnitTests_DescriptiveStatistics"><path codeLine="24" d="M252.24,333.96 C245.39,359.25 238.1376,386.0784 231.2976,411.3484 " fill="none" id="LogicUnitTests-to-DescriptiveStatistics" style="stroke:#181818;stroke-width:1;"/><polygon fill="#181818" points="229.73,417.14,235.9425,409.4977,231.0364,412.3137,228.2204,407.4075,229.73,417.14" style="stroke:#181818;stroke-width:1;"/></g><!--link LogicUnitTests to LinearRegression--><g id="link_LogicUnitTests_LinearRegression"><path codeLine="25" d="M302.39,333.96 C327.43,359.25 355.5094,387.6055 380.5194,412.8755 " fill="none" id="LogicUnitTests-to-LinearRegression" style="stroke:#181818;stroke-width:1;"/><polygon fill="#181818" points="384.74,417.14,381.252,407.9295,381.2228,413.5862,375.566,413.557,384.74,417.14" style="stroke:#181818;stroke-width:1;"/></g><!--link Controllers to Views--><g id="link_Controllers_Views"><path codeLine="35" d="M630.18,317.49 C649,348.39 678.9206,397.5146 697.7206,428.4046 " fill="none" id="Controllers-to-Views" style="stroke:#181818;stroke-width:1;"/><polygon fill="#181818" points="700.84,433.53,699.5779,423.7623,698.2405,429.2588,692.744,427.9215,700.84,433.53" style="stroke:#181818;stroke-width:1;"/></g><!--link Controllers to Models--><g id="link_Controllers_Models"><path codeLine="36" d="M614.14,317.49 C611.67,348.39 607.8082,396.6591 605.3382,427.5491 " fill="none" id="Controllers-to-Models" style="stroke:#181818;stroke-width:1;"/><polygon fill="#181818" points="604.86,433.53,609.5646,424.8775,605.2585,428.5459,601.5901,424.2398,604.86,433.53" style="stroke:#181818;stroke-width:1;"/></g><!--link Controllers to DescriptiveStatistics--><g id="link_Controllers_DescriptiveStatistics"><path codeLine="37" d="M588.59,317.62 C570.38,331.76 545.26,348.69 520,357.49 C437.84,386.08 406,342.74 325,374.49 C300.71,384.01 281.9174,397.0241 263.3674,413.0741 " fill="none" id="Controllers-to-DescriptiveStatistics" style="stroke:#181818;stroke-width:1;"/><polygon fill="#181818" points="258.83,417,268.2533,414.1361,262.6111,413.7285,263.0188,408.0863,258.83,417" style="stroke:#181818;stroke-width:1;"/></g><!--link Controllers to LinearRegression--><g id="link_Controllers_LinearRegression"><path codeLine="38" d="M588.49,317.49 C557.8,343.48 512.1989,382.0926 475.3189,413.3226 " fill="none" id="Controllers-to-LinearRegression" style="stroke:#181818;stroke-width:1;"/><polygon fill="#181818" points="470.74,417.2,480.1932,414.4365,474.5557,413.9689,475.0234,408.3314,470.74,417.2" style="stroke:#181818;stroke-width:1;"/></g><!--link CalculatorEndToEndTests to Controllers--><g id="link_CalculatorEndToEndTests_Controllers"><path codeLine="48" d="M456.48,138.19 C474.73,158.23 496.53,181.56 517,201.89 C540.76,225.5 564.6236,247.1473 584.8836,265.0473 " fill="none" id="CalculatorEndToEndTests-to-Controllers" style="stroke:#181818;stroke-width:1;"/><polygon fill="#181818" points="589.38,269.02,585.2838,260.0634,585.633,265.7094,579.9869,266.0586,589.38,269.02" style="stroke:#181818;stroke-width:1;"/><text fill="#000000" font-family="sans-serif" font-size="13" lengthAdjust="spacing" textLength="85.2998" x="535.5386" y="182.9569">HTTP Call via</text><text fill="#000000" font-family="sans-serif" font-size="13" lengthAdjust="spacing" textLength="116.2446" x="522.1323" y="198.0897">Headless Browser</text></g><!--link Browser to Controllers--><g id="link_Browser_Controllers"><path codeLine="54" d="M675.1937,116.5857 C662.4637,154.3557 639.1762,223.4242 625.7662,263.2142 " fill="none" id="Browser-Controllers" style="stroke:#181818;stroke-width:1;"/><polygon fill="#181818" points="677.11,110.9,670.445,118.1511,675.5131,115.6381,678.026,120.7062,677.11,110.9" style="stroke:#181818;stroke-width:1;"/><polygon fill="#181818" points="623.85,268.9,630.5148,261.6488,625.4468,264.1618,622.9338,259.0938,623.85,268.9" style="stroke:#181818;stroke-width:1;"/><text fill="#000000" font-family="sans-serif" font-size="13" lengthAdjust="spacing" textLength="61.896" x="657" y="190.4569">HTTP Call</text></g><!--SRC=[fLF1JkCm4BtdAqPmMSJs1z0AYQLTmQhiLZI0X90Yuym6Yy6EF4vAXVhlQoTDOz8M3lWGnvetRsQUdmMHMRoeLwMB92c5V1O5mi6v85cHSCR2r1HAmfN9Ay83E2HLFBb7gZ1vIy0lIO8PniZIgjAf6kTEECLEIOOM4TOnt0fIkOyO_QlICkmSHPiYxmEh9EAVAet2NcDXaTb3laoz-cZO6wqSfCYEeLO2VeVpT_ZJRXurMpeVxCHOOf2maMFTR209u9QYRVLujqRPcPHOElOpL7Y5GizTFiOwkqPNMSttSsaiVZjQKmnbo2OlfLjEFLMNCB7Ms0RVw3TePJGwtTt6RkYmt5xPxl0HvcXhj71MbjikQNNn7aBY_dohS14TpursrX2XvURgetFJpGO-3FIymyY-MRU0MvFk6NIYyr5gHdwB_34ZiLpOCF5xIq1lYPx2fwOcV29l-9lj0JUNMRXGyw-n16TT13dOOss5BaCuQZ8sFlZRfOqLbxwlo13RTIvr7PxE9tdhXxXlX21VBES9NAJfBC0fgFEWuG95JbvN-6dDWj46SIMPAeV3IAWdbID8PINXHhOk0Re_-F51kMJr7m00]--></g></svg>